<svg xmlns="http://www.w3.org/2000/svg" xmlns:xlink="http://www.w3.org/1999/xlink" version="1.1" x="0px" y="0px" viewBox="0 0 60 75" style="enable-background:new 0 0 60 60;" xml:space="preserve"><path d="M30,54c13.2333984,0,24-10.7666016,24-24S43.2333984,6,30,6S6,16.7666016,6,30S16.7666016,54,30,54z M30,8  c12.1308594,0,22,9.8691406,22,22s-9.8691406,22-22,22S8,42.1308594,8,30S17.8691406,8,30,8z"/><path d="M20.3955078,39.6044922c0.1953125,0.1953125,0.4511719,0.2929688,0.7070313,0.2929688  s0.5117188-0.0976563,0.7070313-0.2929688L30,31.4140625l8.1904297,8.1904297  c0.1953125,0.1953125,0.4511719,0.2929688,0.7070313,0.2929688s0.5117188-0.0976563,0.7070313-0.2929688  c0.390625-0.390625,0.390625-1.0234375,0-1.4140625L31.4140625,30l8.1904297-8.1904297  c0.390625-0.390625,0.390625-1.0234375,0-1.4140625s-1.0234375-0.390625-1.4140625,0L30,28.5859375l-8.1904297-8.1904297  c-0.390625-0.390625-1.0234375-0.390625-1.4140625,0s-0.390625,1.0234375,0,1.4140625L28.5859375,30l-8.1904297,8.1904297  C20.0048828,38.5810547,20.0048828,39.2138672,20.3955078,39.6044922z"/></svg>