<svg xmlns="http://www.w3.org/2000/svg" viewBox="0 0 32 40" x="0px" y="0px">
	<g>
		<path
			d="m1.7617,30.9883c-.1973,0-.3887-.0781-.5303-.2197-.167-.167-.2456-.4028-.2124-.6362l.7856-5.5c.0229-.1606.0977-.3096.2124-.4243L22.4463,3.7793c.2812-.2812.7793-.2812,1.0605,0l4.7139,4.7144c.293.293.293.7676,0,1.0605L7.792,29.9829c-.1147.1147-.2637.1895-.4243.2124l-5.5.7856c-.0352.0049-.0708.0073-.106.0073Zm5.5-1.5356h.0098-.0098Zm-4.0073-4.3608l-.6089,4.2627,4.2627-.6089L26.6299,9.0239l-3.6533-3.6538L3.2544,25.0918Z"
			style="" fill="#0060EF" stroke-width=" 0px" />
		<path
			d="m27.6904,9.7739c-.1992,0-.3896-.0791-.5303-.2197l-4.7139-4.7144c-.293-.293-.293-.7676,0-1.0605l1.5713-1.5713c1.5928-1.5928,4.1836-1.5908,5.7744,0,1.5918,1.5923,1.5918,4.1826,0,5.7749l-1.5713,1.5713c-.1406.1406-.3311.2197-.5303.2197Zm-3.6533-5.4644l3.6533,3.6538,1.041-1.041c1.0068-1.0073,1.0068-2.6465,0-3.6538-.9756-.9746-2.6758-.9766-3.6533,0l-1.041,1.041Z"
			style="" fill="#0060EF" stroke-width=" 0px" />
	</g>
	<path
		d="m23.251,31.7544c-.0908,0-.1826-.002-.2764-.0049-1.3438-.0449-2.6748-.4248-3.8486-1.0991-.6699-.3853-1.7617-.8545-3.1509-.9009-1.5781-.0459-2.8345.4609-3.6021.9014-.3589.2065-.8174.0815-1.0239-.2778-.2056-.3594-.0815-.8179.2778-1.0239.9365-.5361,2.4526-1.1665,4.3979-1.0986,1.3442.0449,2.6753.4248,3.8491,1.0991.6699.3853,1.7617.8545,3.1514.9009,1.5723.0498,2.833-.4609,3.6016-.9014.3623-.2075.8174-.0811,1.0234.2778.2061.3594.082.8179-.2773,1.0239-.8916.5107-2.3154,1.1035-4.1221,1.1035Z"
		style="" fill="#0060EF" stroke-width=" 0px" />
	<text x="0" y="47" fill="#000000" font-size="5px" font-weight="bold"
		font-family="'Helvetica Neue', Helvetica, Arial-Unicode, Arial, Sans-serif">Created by Iqbal
		Widianto</text>
	<text x="0" y="52" fill="#000000" font-size="5px" font-weight="bold"
		font-family="'Helvetica Neue', Helvetica, Arial-Unicode, Arial, Sans-serif">from the Noun
		Project</text>
</svg>
