<svg id="Calque_2" data-name="Calque 2" xmlns="http://www.w3.org/2000/svg" viewBox="0 0 133.33 147.15"><defs><style>.cls-1{fill:#3b5b89;}</style></defs><path class="cls-1" d="M120.2,63.19c1.23,14.1-1.44,27.27-9.43,39.21a61.09,61.09,0,0,1-12.13,13.2c-3.85,3.17-8.2,5.1-12.71,7-10.86,4.49-22,4.48-32.93,1.14a47.34,47.34,0,0,1-20-12.28,59.67,59.67,0,0,1-14.84-25c3.43,3.06,7.23,6.48,11.06,9.87a24.51,24.51,0,0,0,3,2.37c13.75,8.72,28.65,11.17,44,6,13.68-4.61,23-14.43,27.94-28.12,2.79-7.74,6.29-15,12.83-20.39.35-.28.75-.51,1.53-1A72.33,72.33,0,0,1,120.2,63.19Z"/><path class="cls-1" d="M121.9,46.35a5,5,0,0,1-.71.27c-6.42,1-11.69,4.4-16.36,8.58a46.07,46.07,0,0,0-11,14.91c-3.37,7.18-6.84,14.38-13.57,19.2A70.57,70.57,0,0,1,72,94.55c-8.46,4.39-17.44,4.33-26.71,2.26a11,11,0,0,1,2-.74c5.55-.87,11.11-2,15.7-5.37a106.56,106.56,0,0,0,11-9.8C79,76.05,82,69.77,85.23,63.77c2.27-4.14,4.37-8.37,7.84-11.7l7.82-7.53c-3.35-3.17-6.63-6.43-10.07-9.52C84.05,29,77.05,29.87,70.13,37c-4.3,4.41-9.06,8.36-13.57,12.57-4.66,4.36-10.31,6.92-16.33,8.59a24.18,24.18,0,0,1-16-1.09,28.41,28.41,0,0,1-14-12.46l2.35.89A35.51,35.51,0,0,0,42.78,44c4.77-2.44,8.8-6.37,13-9.77C60.26,30.69,64.31,26.61,69,23.4c4.23-2.9,9.37-3.5,14.52-3.31,7.82.3,13.19,4.65,18.12,10.19a79.58,79.58,0,0,0,10.14,9.16C114.9,41.93,118.38,44,121.9,46.35Z"/><path class="cls-1" d="M16.63,68.62C33.05,81.22,50.56,83,69.31,75.24,61.83,84,52.46,87.81,40.87,86.42,30.76,85.2,20.08,76.3,16.63,68.62Z"/><path class="cls-1" d="M81.74,40.27c3.14,0,5.3,2.46,5.27,5.93,0,3.16-2.62,5.89-5.52,5.8a5.63,5.63,0,0,1-5.13-5.87C76.42,42.75,78.72,40.25,81.74,40.27Z"/></svg>