<svg version="1.2" xmlns="http://www.w3.org/2000/svg" viewBox="0 0 23 22" width="23" height="22">
	<title>print-svg</title>
	<style>
		.s0 { fill: #8f92a1 } 
	</style>
	<path id="Layer" fill-rule="evenodd" class="s0" d="m7.1 0.5h8.2c0.8 0 1.4 0.6 1.4 1.4l0.4 2.7h-11.8l0.4-2.7c0-0.8 0.6-1.4 1.4-1.4zm-5.7 5.6h19.6c0.8 0 1.4 0.6 1.4 1.4v8.6c0 0.8-0.6 1.4-1.4 1.4h-2.7v4h-14.2v-4h-2.7c-0.8 0-1.4-0.6-1.4-1.4v-8.6c0-0.8 0.6-1.4 1.4-1.4zm15.5 14v-9.3h-11.4v9.3zm-1.7-6.6h-8.1c-0.2 0-0.3-0.2-0.3-0.4v-0.4c0-0.2 0.1-0.4 0.3-0.4h8.1c0.2 0 0.4 0.2 0.4 0.4v0.4c0 0.2-0.2 0.4-0.4 0.4zm0 2.6h-8.1c-0.2 0-0.3-0.2-0.3-0.4v-0.5c0-0.1 0.1-0.3 0.3-0.3h8.1c0.2 0 0.4 0.2 0.4 0.3v0.5c0 0.2-0.2 0.4-0.4 0.4zm0 2.6h-8.1c-0.2 0-0.3-0.2-0.3-0.4v-0.5c0-0.1 0.1-0.3 0.3-0.3h8.1c0.2 0 0.4 0.2 0.4 0.3v0.5c0 0.2-0.2 0.4-0.4 0.4z"/>
</svg>