<svg xmlns="http://www.w3.org/2000/svg" fill="#4674F8"  height="40" viewBox="0 -960 960 960" width="40"><path d="M70.849-187.694v-80.255q0-31.333 16.166-55.602 16.167-24.269 44.581-37.354 62.303-28.299 117.315-42.671 55.013-14.372 122.064-14.372 67.052 0 121.731 14.372 54.679 14.372 117.238 42.671 28.158 13.085 44.53 37.354t16.372 55.602v80.255H70.849Zm670.253 0v-81.127q0-48.717-23.005-84.402t-61.558-59.34q48.897 7.077 92.896 20.064 44 12.987 76.445 29.737 29.246 16.121 46.259 40.26 17.013 24.138 17.013 53.681v81.127h-148.05ZM370.975-492.719q-57.877 0-96.566-38.689-38.689-38.688-38.689-96.566 0-57.877 38.689-96.438 38.689-38.56 96.566-38.56 57.878 0 96.438 38.56 38.561 38.561 38.561 96.438 0 57.878-38.561 96.566-38.56 38.689-96.438 38.689ZM696.74-627.974q0 57.878-38.56 96.566-38.56 38.689-96.53 38.689-6.805 0-15.446-1.128-8.64-1.128-15.409-3.384 22.174-25.063 33.805-58.451 11.63-33.387 11.63-72.211t-12.013-70.978q-12.012-32.153-33.422-59.845 7.128-2 15.409-3.128 8.282-1.128 15.41-1.128 58.006 0 96.566 38.56 38.56 38.561 38.56 96.438ZM121.103-237.949h499.488v-30q0-14.846-8.167-27.462-8.167-12.615-24.09-20.59-58.308-28.025-107.641-39.859-49.333-11.833-109.718-11.833-60.385 0-109.923 11.833-49.538 11.834-107.846 39.859-15.923 7.975-24.013 20.59-8.09 12.616-8.09 27.462v30Zm249.744-305.025q35.974 0 60.423-24.448 24.449-24.449 24.449-60.424 0-35.974-24.449-60.423-24.449-24.448-60.423-24.448-35.974 0-60.423 24.448-24.449 24.449-24.449 60.423 0 35.975 24.449 60.424 24.449 24.448 60.423 24.448Zm0 305.025Zm0-389.897Z"/></svg>
